<svg width="123" height="17" viewBox="0 0 123 17" fill="none" xmlns="http://www.w3.org/2000/svg">
<path d="M0 16.6917H3.33833V12.2046L4.98051 10.2L9.30568 16.6917H13.2993L7.37053 7.9719L13.2299 0.902043H9.22858L3.54649 7.86397H3.33833V0.902043H0V16.6917Z" fill="#FF577F"/>
<path d="M19.8686 16.9229C22.7983 16.9229 24.772 15.4966 25.2346 13.2994L22.1969 13.0989C21.8654 14.0009 21.0173 14.4712 19.9226 14.4712C18.2804 14.4712 17.2396 13.3842 17.2396 11.6186V11.6109H25.304V10.7089C25.304 6.68437 22.8677 4.69525 19.7375 4.69525C16.2527 4.69525 13.9938 7.17009 13.9938 10.8245C13.9938 14.5792 16.2219 16.9229 19.8686 16.9229ZM17.2396 9.57553C17.309 8.22633 18.3343 7.14696 19.7915 7.14696C21.2178 7.14696 22.2046 8.16465 22.2124 9.57553H17.2396Z" fill="#FF577F"/>
<path d="M31.1659 9.84538C31.1736 8.31884 32.0833 7.42451 33.4094 7.42451C34.7278 7.42451 35.5219 8.288 35.5142 9.73744V16.6917H38.7985V9.1515C38.7985 6.3914 37.1795 4.69525 34.7123 4.69525C32.9545 4.69525 31.6824 5.55874 31.1504 6.93879H31.0117V4.84945H27.8815V16.6917H31.1659V9.84538Z" fill="#FF577F"/>
<path d="M41.7596 16.6917H51.7129V14.0703H46.0694V13.9855L51.5125 6.98505V4.84945H41.9601V7.47077H47.5574V7.55558L41.7596 14.7334V16.6917Z" fill="#FF577F"/>
<path d="M54.6586 16.6917H57.9429V4.84945H54.6586V16.6917ZM56.3085 3.32291C57.2876 3.32291 58.0894 2.57506 58.0894 1.6576C58.0894 0.747849 57.2876 0 56.3085 0C55.337 0 54.5352 0.747849 54.5352 1.6576C54.5352 2.57506 55.337 3.32291 56.3085 3.32291Z" fill="#FF577F"/>
<path d="M66.4049 16.9229C69.3346 16.9229 71.3083 15.4966 71.7709 13.2994L68.7333 13.0989C68.4018 14.0009 67.5537 14.4712 66.4589 14.4712C64.8167 14.4712 63.7759 13.3842 63.7759 11.6186V11.6109H71.8403V10.7089C71.8403 6.68437 69.404 4.69525 66.2739 4.69525C62.7891 4.69525 60.5301 7.17009 60.5301 10.8245C60.5301 14.5792 62.7582 16.9229 66.4049 16.9229ZM63.7759 9.57553C63.8453 8.22633 64.8707 7.14696 66.3278 7.14696C67.7541 7.14696 68.741 8.16465 68.7487 9.57553H63.7759Z" fill="#FF577F"/>
<path d="M79.9386 16.6917H83.2769V10.1692H90.0538V16.6917H93.3844V0.902043H90.0538V7.4168H83.2769V0.902043H79.9386V16.6917Z" fill="#FF577F"/>
<path d="M104.103 11.6495C104.111 13.2377 103.024 14.0703 101.844 14.0703C100.603 14.0703 99.8014 13.1991 99.7937 11.8037V4.84945H96.5093V12.3896C96.517 15.1574 98.1361 16.8458 100.518 16.8458C102.299 16.8458 103.579 15.9284 104.111 14.5406H104.234V16.6917H107.388V4.84945H104.103V11.6495Z" fill="#FF577F"/>
<path d="M110.511 16.6917H113.749V14.795H113.895C114.35 15.7819 115.345 16.8844 117.257 16.8844C119.955 16.8844 122.06 14.7488 122.06 10.786C122.06 6.71521 119.863 4.69525 117.265 4.69525C115.283 4.69525 114.335 5.87485 113.895 6.83857H113.795V0.902043H110.511V16.6917ZM113.726 10.7706C113.726 8.65807 114.62 7.30886 116.216 7.30886C117.843 7.30886 118.706 8.71975 118.706 10.7706C118.706 12.8368 117.827 14.2708 116.216 14.2708C114.635 14.2708 113.726 12.883 113.726 10.7706Z" fill="#FF577F"/>
</svg>
